<svg id="Layer_1" data-name="Layer 1" xmlns="http://www.w3.org/2000/svg" viewBox="0 0 379.73 33.1">
  <defs>
    <style>
      .cls-1 {
        fill: #231f20;
      }

      .cls-2 {
        fill: none;
        stroke: #231f20;
        stroke-miterlimit: 10;
        stroke-width: 0.7px;
      }

      .cls-3 {
        fill: #98002e;
      }
    </style>
  </defs>
  <title>schmid-horizontal-stacked</title>
  <g>
    <path class="cls-1" d="M167.56,7.9c-0.29-.93-0.79-2-2.13-2a1.57,1.57,0,0,0-1.63,1.68c0,0.9.64,1.49,1.87,2l0.42,0.19c1.25,0.56,2.4,1.41,2.4,3.07,0,1.9-1.49,3.25-3.65,3.25a5,5,0,0,1-1.6-.27c-0.45-.14-0.74-0.27-0.93-0.34-0.13-.42-0.32-1.5-0.48-2.48l0.48-.16c0.32,0.83,1.18,2.61,2.83,2.61a1.68,1.68,0,0,0,1.68-1.81c0-.9-0.43-1.54-1.7-2.16l-0.51-.26c-1.06-.54-2.4-1.39-2.4-3a3.1,3.1,0,0,1,3.41-3.06,4.69,4.69,0,0,1,1.46.22c0.26,0.1.48,0.13,0.67,0.21,0.06,0.56.16,1.26,0.32,2.16Z"/>
    <path class="cls-1" d="M178.92,8.22a2.77,2.77,0,0,0-3-2.37c-2.62,0-3.81,2.19-3.81,4.56,0,3,1.47,5,3.81,5,1.73,0,2.53-.9,3.36-2.59l0.45,0.1a24,24,0,0,1-.8,2.66,13,13,0,0,1-3,.48c-4.19,0-5.89-2.74-5.89-5.27,0-3.36,2.59-5.62,6.18-5.62a11.77,11.77,0,0,1,2.88.42c0.13,0.9.19,1.6,0.29,2.53Z"/>
    <path class="cls-1" d="M185.29,5.45V5.9c-1.18.1-1.31,0.22-1.31,2V10h4.87V7.86c0-1.73-.13-1.86-1.35-2V5.45H192V5.9c-1.28.1-1.41,0.22-1.41,2v5.6c0,1.73.13,1.86,1.38,2v0.45h-4.64V15.41c1.34-.1,1.47-0.22,1.47-2V10.74H184v2.72c0,1.73.13,1.86,1.38,2v0.45h-4.58V15.41c1.28-.1,1.41-0.22,1.41-2V7.86c0-1.73-.13-1.86-1.47-2V5.45h4.58Z"/>
    <path class="cls-1" d="M196.48,5.45L200,13.09l3.35-7.64h3V5.9c-1.3.13-1.36,0.19-1.33,2l0.16,5.6c0,1.79.1,1.82,1.39,2v0.45h-4.47V15.41c1.25-.13,1.3-0.16,1.28-2l-0.06-6.15H203.3l-3.63,8.36h-0.48l-3.5-8h-0.06l-0.11,4.15a21.76,21.76,0,0,0,0,2.8c0.06,0.61.4,0.74,1.46,0.83v0.45h-3.79V15.41c0.8-.06,1.12-0.22,1.23-0.83a27.11,27.11,0,0,0,.29-3l0.18-3.3c0.11-2.13,0-2.29-1.38-2.42V5.45h2.95Z"/>
    <path class="cls-1" d="M212.45,5.45V5.9c-1.22.1-1.34,0.22-1.34,2v5.6c0,1.73.13,1.86,1.34,2v0.45h-4.51V15.41c1.25-.1,1.38-0.22,1.38-2V7.86c0-1.73-.13-1.86-1.38-2V5.45h4.51Z"/>
    <path class="cls-1" d="M218.74,5.45a6.34,6.34,0,0,1,4.48,1.41,4.75,4.75,0,0,1,1.34,3.33c0,3.94-3,5.67-6.79,5.67h-3.92V15.41c1.31-.1,1.44-0.22,1.44-2V7.86c0-1.73-.13-1.86-1.31-2V5.45h4.75Zm-1.65,8c0,1.47.16,1.78,1.39,1.78,2.66,0,4-1.87,4-4.53,0-3.43-1.73-4.61-4.29-4.61a2.45,2.45,0,0,0-1,.14,1.41,1.41,0,0,0-.1.78v6.43Z"/>
    <path class="cls-1" d="M238.93,8.22a2.77,2.77,0,0,0-3-2.37c-2.62,0-3.81,2.19-3.81,4.56,0,3,1.47,5,3.81,5,1.73,0,2.53-.9,3.36-2.59l0.45,0.1a23.57,23.57,0,0,1-.8,2.66,13,13,0,0,1-3,.48c-4.19,0-5.89-2.74-5.89-5.27,0-3.36,2.59-5.62,6.18-5.62a11.76,11.76,0,0,1,2.88.42c0.13,0.9.19,1.6,0.29,2.53Z"/>
    <path class="cls-1" d="M251.57,10.46a5.33,5.33,0,0,1-5.43,5.63,5.09,5.09,0,0,1-5.23-5.27,5.48,5.48,0,0,1,5.6-5.62A5,5,0,0,1,251.57,10.46ZM243,10.32c0,2.9,1.28,5.14,3.55,5.14,1.66,0,2.95-1.39,2.95-4.4,0-3.33-1.33-5.2-3.47-5.2C244.32,5.86,243,7.49,243,10.32Z"/>
    <path class="cls-1" d="M257.68,5.45V5.9c-1.28.1-1.41,0.22-1.41,2v5.57a1.91,1.91,0,0,0,.37,1.57,2.58,2.58,0,0,0,1.31.22,2.53,2.53,0,0,0,1.84-.46,4.86,4.86,0,0,0,.78-1.62l0.51,0.1c-0.1.51-.45,2.14-0.58,2.63H253V15.41c1.34-.1,1.47-0.22,1.47-2V7.86c0-1.73-.13-1.86-1.41-2V5.45h4.61Z"/>
    <path class="cls-1" d="M266.61,5.45V5.9c-1.28.1-1.41,0.22-1.41,2v5.57a1.91,1.91,0,0,0,.37,1.57,2.58,2.58,0,0,0,1.31.22,2.53,2.53,0,0,0,1.84-.46,4.84,4.84,0,0,0,.79-1.62l0.51,0.1c-0.1.51-.45,2.14-0.58,2.63h-7.51V15.41c1.34-.1,1.47-0.22,1.47-2V7.86c0-1.73-.13-1.86-1.41-2V5.45h4.61Z"/>
    <path class="cls-1" d="M278.23,5.45c0,0.26.1,1.44,0.19,2.43l-0.48,0a2.93,2.93,0,0,0-.59-1.46,2.56,2.56,0,0,0-1.78-.37h-0.8c-0.61,0-.64,0-0.64.58v3.39h1.38c1.38,0,1.41-.1,1.57-1.33h0.51v3.39h-0.51c-0.16-1.26-.19-1.33-1.57-1.33h-1.38v2.63c0,0.93.06,1.38,0.35,1.58a3.27,3.27,0,0,0,1.54.21,2.53,2.53,0,0,0,1.87-.46,5.09,5.09,0,0,0,.82-1.62l0.48,0.1c-0.06.54-.42,2.18-0.54,2.63h-7.81V15.41c1.38-.1,1.5-0.22,1.5-2V7.86c0-1.73-.13-1.86-1.34-2V5.45h7.23Z"/>
    <path class="cls-1" d="M289.69,14a6,6,0,0,0,.1,1.42,13,13,0,0,1-3.49.67c-3.57,0-6-2.13-6-5.33,0-3.65,2.91-5.55,6.05-5.55a13.23,13.23,0,0,1,3.07.42c0,0.54.13,1.38,0.26,2.59l-0.51.06a2.78,2.78,0,0,0-3.07-2.43c-2.21,0-3.71,1.68-3.71,4.59,0,2.46,1.06,5,4,5a2.56,2.56,0,0,0,1.07-.18,0.93,0.93,0,0,0,.43-1V12.9c0-1.09-.06-1.18-1.76-1.31V11.11h4.45v0.48c-0.83.13-.9,0.19-0.9,1.31V14Z"/>
    <path class="cls-1" d="M299,5.45c0,0.26.1,1.44,0.19,2.43l-0.48,0a2.94,2.94,0,0,0-.59-1.46,2.56,2.56,0,0,0-1.78-.37h-0.8c-0.61,0-.64,0-0.64.58v3.39h1.38c1.38,0,1.41-.1,1.57-1.33h0.51v3.39h-0.51c-0.16-1.26-.19-1.33-1.57-1.33h-1.38v2.63c0,0.93.06,1.38,0.35,1.58a3.27,3.27,0,0,0,1.54.21,2.53,2.53,0,0,0,1.87-.46,5.13,5.13,0,0,0,.82-1.62l0.48,0.1c-0.06.54-.42,2.18-0.54,2.63h-7.81V15.41c1.38-.1,1.5-0.22,1.5-2V7.86c0-1.73-.13-1.86-1.34-2V5.45H299Z"/>
    <path class="cls-1" d="M315.65,10.46a5.33,5.33,0,0,1-5.43,5.63A5.09,5.09,0,0,1,305,10.83a5.47,5.47,0,0,1,5.6-5.62A5,5,0,0,1,315.65,10.46Zm-8.58-.14c0,2.9,1.28,5.14,3.55,5.14,1.66,0,2.94-1.39,2.94-4.4,0-3.33-1.33-5.2-3.47-5.2C308.4,5.86,307.07,7.49,307.07,10.32Z"/>
    <path class="cls-1" d="M324.48,5.45c0,0.26.1,1.44,0.19,2.37l-0.48.06a2.92,2.92,0,0,0-.59-1.42,2.56,2.56,0,0,0-1.78-.37H321c-0.61,0-.64,0-0.64.58v3.55H322c1.38,0,1.41-.1,1.57-1.28H324v3.28h-0.51C323.36,11,323.33,11,322,11h-1.6v2.5c0,1.73.13,1.86,1.6,2v0.45h-4.71V15.41c1.18-.1,1.31-0.22,1.31-2V7.86c0-1.73-.13-1.86-1.31-2V5.45h7.24Z"/>
    <path class="cls-1" d="M167.56,20.9c-0.29-.93-0.79-2-2.13-2a1.57,1.57,0,0,0-1.63,1.68c0,0.9.64,1.49,1.87,2l0.42,0.19c1.25,0.56,2.4,1.41,2.4,3.07,0,1.9-1.49,3.25-3.65,3.25a5,5,0,0,1-1.6-.27c-0.45-.14-0.74-0.27-0.93-0.34-0.13-.42-0.32-1.5-0.48-2.48l0.48-.16c0.32,0.83,1.18,2.61,2.83,2.61a1.68,1.68,0,0,0,1.68-1.81c0-.9-0.43-1.54-1.7-2.16l-0.51-.26c-1.06-.54-2.4-1.39-2.4-3a3.1,3.1,0,0,1,3.41-3.06,4.67,4.67,0,0,1,1.46.22c0.26,0.1.48,0.13,0.67,0.21,0.06,0.56.16,1.26,0.32,2.16Z"/>
    <path class="cls-1" d="M178.92,21.22a2.77,2.77,0,0,0-3-2.37c-2.62,0-3.81,2.19-3.81,4.56,0,3,1.47,5,3.81,5,1.73,0,2.53-.9,3.36-2.59l0.45,0.1a24,24,0,0,1-.8,2.66,13,13,0,0,1-3,.48c-4.19,0-5.89-2.74-5.89-5.27,0-3.36,2.59-5.62,6.18-5.62a11.81,11.81,0,0,1,2.88.42c0.13,0.9.19,1.6,0.29,2.53Z"/>
    <path class="cls-1" d="M185.32,18.45V18.9c-1.22.1-1.35,0.22-1.35,2v5.6c0,1.73.13,1.86,1.35,2v0.45H180.8V28.41c1.25-.1,1.38-0.22,1.38-2v-5.6c0-1.73-.13-1.86-1.38-2V18.45h4.51Z"/>
    <path class="cls-1" d="M194.05,18.45c0,0.26.1,1.44,0.19,2.43l-0.48,0a2.93,2.93,0,0,0-.59-1.46,2.56,2.56,0,0,0-1.78-.37h-0.8c-0.61,0-.64,0-0.64.58v3.39h1.38c1.38,0,1.41-.1,1.57-1.33h0.51v3.39H192.9c-0.16-1.26-.19-1.33-1.57-1.33H190v2.63c0,0.93.06,1.38,0.35,1.58a3.27,3.27,0,0,0,1.54.21,2.53,2.53,0,0,0,1.87-.46,5.13,5.13,0,0,0,.82-1.62l0.48,0.1c-0.06.54-.42,2.18-0.54,2.63h-7.81V28.41c1.38-.1,1.5-0.22,1.5-2v-5.6c0-1.73-.13-1.86-1.34-2V18.45h7.23Z"/>
    <path class="cls-1" d="M198.39,18.45L204.78,26h0v-3a25,25,0,0,0-.14-3.2c-0.08-.58-0.53-0.77-1.55-0.83V18.45H207V18.9c-0.8,0-1.22.26-1.3,0.83a25,25,0,0,0-.14,3.2v6h-0.74l-6.59-8.07h0v3.46a25,25,0,0,0,.14,3.2c0.08,0.58.53,0.77,1.55,0.83v0.45H196V28.41c0.8,0,1.22-.26,1.3-0.83a24.71,24.71,0,0,0,.14-3.2V21.24c0-1.86-.35-2.24-1.67-2.34V18.45h2.61Z"/>
    <path class="cls-1" d="M217.19,21.22a2.77,2.77,0,0,0-3-2.37c-2.62,0-3.81,2.19-3.81,4.56,0,3,1.47,5,3.81,5,1.73,0,2.53-.9,3.36-2.59L218,26a24,24,0,0,1-.8,2.66,13,13,0,0,1-3,.48c-4.19,0-5.89-2.74-5.89-5.27,0-3.36,2.59-5.62,6.18-5.62a11.81,11.81,0,0,1,2.88.42c0.13,0.9.19,1.6,0.29,2.53Z"/>
    <path class="cls-1" d="M226.34,18.45c0,0.26.1,1.44,0.19,2.43l-0.48,0a2.93,2.93,0,0,0-.59-1.46,2.56,2.56,0,0,0-1.78-.37h-0.8c-0.61,0-.64,0-0.64.58v3.39h1.38c1.38,0,1.41-.1,1.57-1.33h0.51v3.39h-0.51c-0.16-1.26-.19-1.33-1.57-1.33h-1.38v2.63c0,0.93.06,1.38,0.35,1.58a3.27,3.27,0,0,0,1.54.21,2.53,2.53,0,0,0,1.87-.46,5.13,5.13,0,0,0,.82-1.62l0.48,0.1c-0.06.54-.42,2.18-0.54,2.63h-7.81V28.41c1.38-.1,1.5-0.22,1.5-2v-5.6c0-1.73-.13-1.86-1.34-2V18.45h7.23Z"/>
    <path class="cls-1" d="M236.92,18.26l1.1,3c0.72,2,1.42,3.94,2,5.54,0.54,1.42.77,1.54,1.7,1.63v0.45h-4.21V28.41l0.45-.06c0.61-.1.64-0.26,0.45-0.87s-0.54-1.47-.88-2.3h-3c-0.21.48-.5,1.38-0.72,2-0.29.85-.16,1.06,0.55,1.14l0.45,0v0.45h-3.55V28.41c1-.13,1.17-0.19,1.73-1.63l3.23-8.32Zm-2.14,6.18h2.54l-1.25-3.52h0Z"/>
    <path class="cls-1" d="M245,18.45L251.34,26h0v-3a24.68,24.68,0,0,0-.14-3.2c-0.08-.58-0.53-0.77-1.55-0.83V18.45h3.91V18.9c-0.8,0-1.22.26-1.3,0.83a24.68,24.68,0,0,0-.14,3.2v6H251.4l-6.59-8.07h0v3.46a25,25,0,0,0,.14,3.2c0.08,0.58.53,0.77,1.55,0.83v0.45h-3.91V28.41c0.8,0,1.22-.26,1.3-0.83a25,25,0,0,0,.14-3.2V21.24c0-1.86-.35-2.24-1.66-2.34V18.45H245Z"/>
    <path class="cls-1" d="M259.58,18.45a6.34,6.34,0,0,1,4.48,1.41,4.75,4.75,0,0,1,1.35,3.33c0,3.94-3,5.67-6.79,5.67h-3.92V28.41c1.31-.1,1.44-0.22,1.44-2v-5.6c0-1.73-.13-1.86-1.31-2V18.45h4.75Zm-1.65,8c0,1.47.16,1.78,1.39,1.78,2.66,0,4-1.87,4-4.53,0-3.43-1.73-4.61-4.29-4.61a2.45,2.45,0,0,0-1,.14,1.41,1.41,0,0,0-.1.79v6.43Z"/>
    <path class="cls-1" d="M270.58,21c0.06-1.06.16-2.11,0.19-2.95h0.29a0.73,0.73,0,0,0,.83.42h6.59a0.78,0.78,0,0,0,.77-0.42h0.26c0,0.67.1,1.89,0.19,2.91l-0.48,0a2.81,2.81,0,0,0-.59-1.49,2.36,2.36,0,0,0-1.78-.4H276v7.36c0,1.73.13,1.86,1.6,2v0.45h-4.93V28.41c1.41-.1,1.54-0.22,1.54-2V19.1h-0.54c-1.38,0-1.79.19-2,.48a3.56,3.56,0,0,0-.58,1.41h-0.48Z"/>
    <path class="cls-1" d="M288.18,18.45c0,0.26.1,1.44,0.19,2.43l-0.48,0a2.94,2.94,0,0,0-.59-1.46,2.56,2.56,0,0,0-1.78-.37h-0.8c-0.61,0-.64,0-0.64.58v3.39h1.38c1.38,0,1.41-.1,1.57-1.33h0.51v3.39H287c-0.16-1.26-.19-1.33-1.57-1.33h-1.38v2.63c0,0.93.06,1.38,0.35,1.58a3.26,3.26,0,0,0,1.54.21,2.53,2.53,0,0,0,1.87-.46,5.1,5.1,0,0,0,.82-1.62l0.48,0.1c-0.06.54-.42,2.18-0.54,2.63h-7.81V28.41c1.38-.1,1.51-0.22,1.51-2v-5.6c0-1.73-.13-1.86-1.35-2V18.45h7.24Z"/>
    <path class="cls-1" d="M299.19,21.22a2.77,2.77,0,0,0-3-2.37c-2.62,0-3.81,2.19-3.81,4.56,0,3,1.47,5,3.81,5,1.73,0,2.53-.9,3.36-2.59L300,26a23.79,23.79,0,0,1-.8,2.66,13,13,0,0,1-3,.48c-4.19,0-5.89-2.74-5.89-5.27,0-3.36,2.59-5.62,6.18-5.62a11.8,11.8,0,0,1,2.88.42c0.13,0.9.19,1.6,0.29,2.53Z"/>
    <path class="cls-1" d="M305.56,18.45V18.9c-1.18.1-1.31,0.22-1.31,2V23h4.87V20.86c0-1.73-.13-1.86-1.34-2V18.45h4.55V18.9c-1.28.1-1.41,0.22-1.41,2v5.6c0,1.73.13,1.86,1.38,2v0.45h-4.64V28.41c1.34-.1,1.47-0.22,1.47-2V23.74h-4.87v2.72c0,1.73.13,1.86,1.38,2v0.45H301V28.41c1.28-.1,1.41-0.22,1.41-2v-5.6c0-1.73-.13-1.86-1.47-2V18.45h4.58Z"/>
    <path class="cls-1" d="M316,18.45L322.42,26h0v-3a24.68,24.68,0,0,0-.14-3.2c-0.08-.58-0.53-0.77-1.55-0.83V18.45h3.91V18.9c-0.8,0-1.22.26-1.3,0.83a25,25,0,0,0-.14,3.2v6h-0.74l-6.59-8.07h0v3.46a24.72,24.72,0,0,0,.14,3.2c0.08,0.58.53,0.77,1.55,0.83v0.45h-3.91V28.41c0.8,0,1.22-.26,1.3-0.83a25,25,0,0,0,.14-3.2V21.24c0-1.86-.35-2.24-1.66-2.34V18.45H316Z"/>
    <path class="cls-1" d="M336.6,23.46a5.33,5.33,0,0,1-5.43,5.63,5.09,5.09,0,0,1-5.23-5.27,5.47,5.47,0,0,1,5.6-5.62A5,5,0,0,1,336.6,23.46ZM328,23.32c0,2.9,1.28,5.14,3.55,5.14,1.66,0,2.94-1.39,2.94-4.4,0-3.33-1.33-5.2-3.47-5.2C329.35,18.86,328,20.49,328,23.32Z"/>
    <path class="cls-1" d="M342.71,18.45V18.9c-1.28.1-1.41,0.22-1.41,2v5.57a1.91,1.91,0,0,0,.37,1.57,2.58,2.58,0,0,0,1.31.22,2.53,2.53,0,0,0,1.84-.46,4.85,4.85,0,0,0,.78-1.62l0.51,0.1c-0.1.51-.45,2.14-0.58,2.63H338V28.41c1.34-.1,1.47-0.22,1.47-2v-5.6c0-1.73-.13-1.86-1.41-2V18.45h4.61Z"/>
    <path class="cls-1" d="M357.3,23.46a5.33,5.33,0,0,1-5.43,5.63,5.09,5.09,0,0,1-5.23-5.27,5.47,5.47,0,0,1,5.6-5.62A5,5,0,0,1,357.3,23.46Zm-8.58-.14c0,2.9,1.28,5.14,3.55,5.14,1.66,0,2.94-1.39,2.94-4.4,0-3.33-1.33-5.2-3.47-5.2C350.05,18.86,348.72,20.49,348.72,23.32Z"/>
    <path class="cls-1" d="M368.44,27a6,6,0,0,0,.1,1.42,13,13,0,0,1-3.49.67c-3.57,0-6-2.13-6-5.33,0-3.65,2.91-5.55,6.05-5.55a13.31,13.31,0,0,1,3.07.42c0,0.54.13,1.38,0.26,2.59l-0.51.06a2.78,2.78,0,0,0-3.07-2.43c-2.21,0-3.71,1.68-3.71,4.59,0,2.46,1.06,5,4,5a2.55,2.55,0,0,0,1.07-.18,0.94,0.94,0,0,0,.43-1V25.9c0-1.09-.06-1.18-1.76-1.31V24.11h4.45v0.48c-0.83.13-.9,0.19-0.9,1.31V27Z"/>
    <path class="cls-1" d="M374.1,18.45V18.9l-0.67.1c-0.42.06-.45,0.19-0.19,0.7,0.38,0.77,1.41,2.71,2.06,3.76,0.5-.85,1.38-2.58,1.86-3.67,0.27-.61.18-0.77-0.38-0.83l-0.64-.06V18.45h3.6V18.9c-1,.1-1.1.29-1.78,1.34s-1.2,2-2,3.54a1.53,1.53,0,0,0-.21,1v1.71c0,1.73.13,1.86,1.57,2v0.45h-4.87V28.41c1.38-.1,1.5-0.22,1.5-2V24.91a1.32,1.32,0,0,0-.22-0.87c-0.51-1-1.09-2-2.14-3.79C370.88,19,370.8,19,370,18.9V18.45h4.13Z"/>
  </g>
  <line class="cls-2" x1="155.45" x2="155.45" y2="33.1"/>
  <g>
    <path class="cls-1" d="M43.53,5.83c-0.62-2.37-1.94-3-4-3-3.71,0-5.36,2.81-5.36,6,0,4,2,6.62,5.38,6.62,2.31,0,3.38-1.11,4.39-3.28l0.52,0.06c-0.27.89-.72,2.54-1.05,3.32a18.5,18.5,0,0,1-3.88.58c-5.22,0-7.41-3.55-7.41-6.83,0-4.25,3.28-7.2,7.8-7.2a15.37,15.37,0,0,1,3.71.54c0.17,1.13.25,2,.37,3.12Z"/>
    <path class="cls-1" d="M59,8.37V5.44c0-2.25-.16-2.39-1.82-2.52V2.45h5.45V2.92c-1.73.12-1.9,0.27-1.9,2.52v7.43c0,2.25.17,2.39,1.86,2.52v0.47H57.06V15.38c1.82-.12,2-0.27,2-2.52V9.2H51.89v3.67c0,2.25.17,2.39,1.86,2.52v0.47H48.3V15.38c1.69-.12,1.86-0.27,1.86-2.52V5.44c0-2.25-.16-2.39-1.94-2.52V2.45h5.45V2.92c-1.61.12-1.77,0.27-1.77,2.52V8.37H59Z"/>
    <path class="cls-1" d="M74.38,15.38L75,15.3c0.76-.08.85-0.31,0.64-0.95s-0.74-2.1-1.32-3.59H70.17c-0.21.54-.74,2.15-1,3-0.39,1.2-.21,1.46.72,1.55l0.62,0.06v0.47H66.06V15.38c1.34-.14,1.51-0.27,2.23-2.1l4.25-11L73,2.14l1.46,3.92c1,2.62,1.88,5.24,2.68,7.34,0.66,1.73.93,1.88,2.21,2v0.47h-5V15.38ZM70.44,10h3.65L72.27,4.9h0Z"/>
    <path class="cls-1" d="M86.34,12.87c0,2.25.16,2.39,2.17,2.52v0.47H82.75V15.38c1.69-.12,1.86-0.27,1.86-2.52V5.44c0-2.25-.17-2.39-1.75-2.52V2.45h5.22a5.68,5.68,0,0,1,3.42.87,3.31,3.31,0,0,1,1.32,2.83,4.25,4.25,0,0,1-4,4.15,7.69,7.69,0,0,1-.93,0l-1.53-.39v2.93Zm0-3.55a4.17,4.17,0,0,0,1.55.25c1.3,0,3-.68,3-3.36C90.88,4,89.71,3,87.58,3a3.28,3.28,0,0,0-1.05.1c-0.12,0-.19.14-0.19,0.56V9.32Z"/>
    <path class="cls-1" d="M100.48,2.45l5,10.62,4.91-10.62h3.4V2.92c-1.79.14-1.92,0.23-1.86,2.52l0.16,7.43c0.06,2.31.12,2.37,1.94,2.52v0.47h-5.45V15.38c1.73-.14,1.79-0.21,1.77-2.52l-0.08-8.31h-0.08l-5.05,11.08h-0.52L99.86,4.84h0L99.61,10.6a26,26,0,0,0,0,3.71c0.1,0.76.6,1,1.94,1.07v0.47H96.7V15.38c1.16-.1,1.59-0.31,1.73-1.07a32.87,32.87,0,0,0,.35-3.92L99,6.06c0.14-2.76,0-3-1.94-3.14V2.45h3.4Z"/>
    <path class="cls-1" d="M125.67,15.38l0.66-.08c0.76-.08.85-0.31,0.64-0.95s-0.74-2.1-1.32-3.59h-4.19c-0.21.54-.74,2.15-1,3-0.39,1.2-.21,1.46.72,1.55l0.62,0.06v0.47h-4.42V15.38c1.34-.14,1.51-0.27,2.23-2.1l4.25-11,0.47-.19,1.46,3.92c1,2.62,1.88,5.24,2.68,7.34,0.66,1.73.93,1.88,2.21,2v0.47h-5V15.38ZM121.73,10h3.65L123.56,4.9h0Z"/>
    <path class="cls-1" d="M146.3,16h-0.54l-9-10.87h0v5.26a32.17,32.17,0,0,0,.16,3.92c0.1,0.72.66,1,2,1.07v0.47h-5V15.38c1.13,0,1.67-.35,1.77-1.07a32,32,0,0,0,.16-3.92V5.92c0-1.49,0-1.82-.39-2.29a2.28,2.28,0,0,0-1.82-.7V2.45h3l8.69,10.4h0V7.92A32.05,32.05,0,0,0,145.31,4c-0.1-.72-0.66-1-2-1.07V2.45h5V2.92c-1.13,0-1.67.35-1.77,1.07a32.06,32.06,0,0,0-.16,3.92V16Z"/>
    <path class="cls-1" d="M37,19v0.4c-1.38.1-1.51,0.22-1.51,2.1V25.1a5.87,5.87,0,0,0,.72,3.34,2.81,2.81,0,0,0,2.48,1.19,2.93,2.93,0,0,0,2.53-1.29A7.59,7.59,0,0,0,42,24.51V23.58a27.08,27.08,0,0,0-.14-3.29c-0.09-.6-0.55-0.84-1.69-0.89V19h4.13v0.4c-0.95,0-1.39.29-1.48,0.89a27.11,27.11,0,0,0-.14,3.29v1.15c0,2-.31,3.4-1.31,4.47a4.82,4.82,0,0,1-6,.36C34.43,28.83,34,27.66,34,25.7V21.5c0-1.87-.14-2-1.58-2.1V19H37Z"/>
    <path class="cls-1" d="M57.38,30.31H56.94l-7.46-9.06h0v4.39a26.68,26.68,0,0,0,.14,3.27c0.09,0.6.55,0.84,1.69,0.89v0.4H47.13v-0.4c0.95,0,1.39-.29,1.48-0.89a26.68,26.68,0,0,0,.14-3.27V21.9c0-1.24,0-1.51-.33-1.91a1.9,1.9,0,0,0-1.51-.58V19h2.51l7.24,8.67h0V23.57a26.7,26.7,0,0,0-.14-3.27c-0.09-.6-0.55-0.84-1.69-0.89V19H59v0.4c-0.95,0-1.39.29-1.48,0.89a26.72,26.72,0,0,0-.14,3.27v6.74Z"/>
    <path class="cls-1" d="M65,27.69c0,1.87.14,2,1.55,2.1v0.4H62v-0.4c1.41-.1,1.55-0.22,1.55-2.1V21.5c0-1.87-.14-2-1.55-2.1V19h4.54v0.4c-1.41.1-1.55,0.22-1.55,2.1v6.19Z"/>
    <path class="cls-1" d="M74.61,30.29c-1.17-3.08-2.82-7.33-3.56-9.23-0.55-1.43-.79-1.55-1.82-1.65V19h4.18v0.4l-0.55.07c-0.64.09-.74,0.26-0.55,0.79,0.45,1.27,1.77,4.66,3,7.88,0.89-2.37,2.37-6.28,2.75-7.39s0.15-1.2-.62-1.29l-0.52-.05V19h3.77v0.4c-1.15.12-1.31,0.24-1.94,1.75-0.22.53-2.36,5.64-3.65,9.13H74.61Z"/>
    <path class="cls-1" d="M84.94,21.5c0-1.87-.14-2-1.51-2.1V19H91c0,0.29.1,1.55,0.19,2.51l-0.43.05A3.17,3.17,0,0,0,90.1,20a2.67,2.67,0,0,0-1.89-.41H86.9c-0.48,0-.52,0-0.52.53V24h1.74c1.48,0,1.53-.1,1.7-1.38h0.43v3.41H89.83a1.85,1.85,0,0,0-.36-1.17,2.17,2.17,0,0,0-1.34-.22H86.39v3c0,1,.1,1.5.43,1.7a3.89,3.89,0,0,0,1.75.21,3.09,3.09,0,0,0,2.17-.5,4.74,4.74,0,0,0,.83-1.69L92,27.49c-0.09.48-.46,2.24-0.6,2.7H83.26v-0.4c1.55-.1,1.69-0.22,1.69-2.1V21.5Z"/>
    <path class="cls-1" d="M98,27.69c0,1.87.14,2,1.55,2.1v0.4H94.95v-0.4c1.44-.1,1.58-0.22,1.58-2.1V21.5c0-1.87-.14-2-1.51-2.1V19h4.37a5,5,0,0,1,2.72.58,2.51,2.51,0,0,1,1.14,2.2,3.21,3.21,0,0,1-2.27,3c0.31,0.52,1,1.7,1.53,2.46a15.8,15.8,0,0,0,1.44,1.89,2.22,2.22,0,0,0,1.29.86l0,0.33H105c-2-.05-2.58-0.65-3.23-1.6-0.53-.77-1.26-2-1.74-2.85a1.1,1.1,0,0,0-1.08-.62H98v2.42Zm0-2.92h1a2.54,2.54,0,0,0,1.72-.46,2.77,2.77,0,0,0,1-2.27,2.4,2.4,0,0,0-2.6-2.53,3.07,3.07,0,0,0-1,.09c-0.1,0-.15.12-0.15,0.46v4.71Z"/>
    <path class="cls-1" d="M108.24,27.16c0.28,0.81,1.15,2.72,3,2.72a2,2,0,0,0,2.13-2.22c0-1.46-1.12-2.06-2.22-2.6-0.57-.28-2.89-1.08-2.89-3.15a3.22,3.22,0,0,1,3.54-3.16,5.12,5.12,0,0,1,1.43.22,6.35,6.35,0,0,0,.65.19c0.07,0.6.17,1.29,0.31,2.32l-0.43.05c-0.29-1-.77-2.22-2.34-2.22a1.79,1.79,0,0,0-1.86,1.91c0,1.27.91,1.84,2.22,2.42,1.13,0.5,2.94,1.2,2.94,3.34a3.55,3.55,0,0,1-3.82,3.46,5.51,5.51,0,0,1-1.63-.26c-0.43-.14-0.74-0.28-0.95-0.36-0.14-.45-0.33-1.67-0.5-2.6Z"/>
    <path class="cls-1" d="M121,27.69c0,1.87.14,2,1.55,2.1v0.4H118v-0.4c1.41-.1,1.55-0.22,1.55-2.1V21.5c0-1.87-.14-2-1.55-2.1V19h4.54v0.4c-1.41.1-1.55,0.22-1.55,2.1v6.19Z"/>
    <path class="cls-1" d="M131.16,27.69c0,1.87.14,2,1.82,2.1v0.4h-5v-0.4c1.62-.1,1.75-0.22,1.75-2.1V19.58h-0.81c-1.53,0-2,.22-2.25.55a4.56,4.56,0,0,0-.6,1.48h-0.43c0.07-1,.17-2.15.21-3h0.24A0.82,0.82,0,0,0,127,19H134a0.83,0.83,0,0,0,.81-0.43h0.24c0,0.72.1,2,.19,3l-0.43.05A3.33,3.33,0,0,0,134.2,20a2.47,2.47,0,0,0-1.89-.45h-1.15v8.12Z"/>
    <path class="cls-1" d="M143.5,27.69c0,1.87.14,2,1.79,2.1v0.4h-5v-0.4c1.58-.1,1.72-0.22,1.72-2.1v-2a1.79,1.79,0,0,0-.38-1c-0.77-1.34-1.44-2.58-2.18-3.85s-0.81-1.32-1.81-1.44V19h4.14v0.4l-0.79.1c-0.43.07-.55,0.22-0.26,0.76,0.77,1.44,1.56,2.87,2.41,4.28,0.72-1.37,1.5-2.79,2.13-4.2,0.29-.62.15-0.79-0.5-0.86l-0.69-.09V19h3.78v0.4c-1.15.1-1.24,0.33-2,1.46s-1.43,2.39-2.17,3.77a1.48,1.48,0,0,0-.29.93v2.13Z"/>
  </g>
  <g>
    <polygon class="cls-3" points="13.09 16.54 0 29.62 0 16.54 13.09 16.54"/>
    <polygon class="cls-3" points="0 15.7 0 2.6 13.09 15.7 0 15.7"/>
    <polygon class="cls-3" points="27.61 2.01 14.52 15.1 14.52 2.01 27.61 2.01"/>
    <polygon class="cls-3" points="13.68 15.1 0.59 2.01 13.68 2.01 13.68 15.1"/>
    <polygon class="cls-3" points="15.11 15.7 28.2 2.6 28.2 15.7 15.11 15.7"/>
    <polygon class="cls-3" points="28.2 16.54 28.2 29.62 15.11 16.54 28.2 16.54"/>
    <polygon class="cls-3" points="13.68 17.13 0.59 30.21 13.68 30.21 13.68 17.13"/>
    <polygon class="cls-3" points="14.52 17.13 14.52 30.21 27.61 30.21 14.52 17.13"/>
  </g>
</svg>
